<mxfile host="app.diagrams.net" agent="Mozilla/5.0 (Windows NT 10.0; Win64; x64) AppleWebKit/537.36 (KHTML, like Gecko) Chrome/129.0.0.0 Safari/537.36" version="24.7.17">
  <diagram name="Page-1" id="X9zQntpidgXds6n1AyPA">
    <mxGraphModel dx="721" dy="401" grid="1" gridSize="10" guides="1" tooltips="1" connect="1" arrows="1" fold="1" page="1" pageScale="1" pageWidth="827" pageHeight="1169" math="0" shadow="0">
      <root>
        <mxCell id="0" />
        <mxCell id="1" parent="0" />
        <mxCell id="vRaaLgYJYoYB9j4Z2Ygw-1" value="Drone" style="swimlane;fontStyle=1;align=center;verticalAlign=top;childLayout=stackLayout;horizontal=1;startSize=26;horizontalStack=0;resizeParent=1;resizeParentMax=0;resizeLast=0;collapsible=1;marginBottom=0;whiteSpace=wrap;html=1;" vertex="1" parent="1">
          <mxGeometry x="470" y="314" width="160" height="320" as="geometry" />
        </mxCell>
        <mxCell id="vRaaLgYJYoYB9j4Z2Ygw-2" value="&lt;div&gt;- BASE_CHARGE: int&lt;/div&gt;&lt;div&gt;- LOW_BATTERY_LIMIT: double&lt;/div&gt;&lt;div&gt;+ charge: int&lt;/div&gt;&lt;div&gt;- name: string&lt;/div&gt;&lt;div&gt;- x: int&lt;/div&gt;&lt;div&gt;- y: int&lt;/div&gt;&lt;div&gt;+ LowBatterie: bool&lt;/div&gt;&lt;div&gt;+ NoFlyZones: List&amp;lt;Rectangle&amp;gt;&lt;/div&gt;" style="text;strokeColor=none;fillColor=none;align=left;verticalAlign=top;spacingLeft=4;spacingRight=4;overflow=hidden;rotatable=0;points=[[0,0.5],[1,0.5]];portConstraint=eastwest;whiteSpace=wrap;html=1;" vertex="1" parent="vRaaLgYJYoYB9j4Z2Ygw-1">
          <mxGeometry y="26" width="160" height="184" as="geometry" />
        </mxCell>
        <mxCell id="vRaaLgYJYoYB9j4Z2Ygw-3" value="" style="line;strokeWidth=1;fillColor=none;align=left;verticalAlign=middle;spacingTop=-1;spacingLeft=3;spacingRight=3;rotatable=0;labelPosition=right;points=[];portConstraint=eastwest;strokeColor=inherit;" vertex="1" parent="vRaaLgYJYoYB9j4Z2Ygw-1">
          <mxGeometry y="210" width="160" height="8" as="geometry" />
        </mxCell>
        <mxCell id="vRaaLgYJYoYB9j4Z2Ygw-4" value="&lt;span style=&quot;text-wrap: nowrap;&quot;&gt;+ Update(int interval): void&lt;/span&gt;&lt;br style=&quot;text-wrap: nowrap; padding: 0px; margin: 0px;&quot;&gt;&lt;span style=&quot;text-wrap: nowrap;&quot;&gt;+ Evacuate(Rectangle zone): bool&lt;/span&gt;&lt;br style=&quot;text-wrap: nowrap; padding: 0px; margin: 0px;&quot;&gt;&lt;span style=&quot;text-wrap: nowrap;&quot;&gt;+ FreeFlight(): void&lt;/span&gt;&lt;br style=&quot;text-wrap: nowrap; padding: 0px; margin: 0px;&quot;&gt;&lt;span style=&quot;text-wrap: nowrap;&quot;&gt;+ GetEvacuationState(): EvacuationState&lt;/span&gt;" style="text;strokeColor=none;fillColor=none;align=left;verticalAlign=top;spacingLeft=4;spacingRight=4;overflow=hidden;rotatable=0;points=[[0,0.5],[1,0.5]];portConstraint=eastwest;whiteSpace=wrap;html=1;" vertex="1" parent="vRaaLgYJYoYB9j4Z2Ygw-1">
          <mxGeometry y="218" width="160" height="102" as="geometry" />
        </mxCell>
        <mxCell id="vRaaLgYJYoYB9j4Z2Ygw-5" value="«interface»&lt;br&gt;IDispatchable&lt;br&gt;&lt;div&gt;&lt;b&gt;&lt;br&gt;&lt;/b&gt;&lt;/div&gt;&lt;div&gt;&lt;span style=&quot;color: rgba(0, 0, 0, 0); font-family: monospace; font-size: 0px; text-align: start; text-wrap: nowrap;&quot;&gt;%3CmxGraphModel%3E%3Croot%3E%3CmxCell%20id%3D%220%22%2F%3E%3CmxCell%20id%3D%221%22%20parent%3D%220%22%2F%3E%3CmxCell%20id%3D%222%22%20value%3D%22%26lt%3Bspan%20style%3D%26quot%3Btext-wrap%3A%20nowrap%3B%26quot%3B%26gt%3B%2B%20Update(int%20interval)%3A%20void%26lt%3B%2Fspan%26gt%3B%26lt%3Bbr%20style%3D%26quot%3Btext-wrap%3A%20nowrap%3B%20padding%3A%200px%3B%20margin%3A%200px%3B%26quot%3B%26gt%3B%26lt%3Bspan%20style%3D%26quot%3Btext-wrap%3A%20nowrap%3B%26quot%3B%26gt%3B%2B%20Evacuate(Rectangle%20zone)%3A%20bool%26lt%3B%2Fspan%26gt%3B%26lt%3Bbr%20style%3D%26quot%3Btext-wrap%3A%20nowrap%3B%20padding%3A%200px%3B%20margin%3A%200px%3B%26quot%3B%26gt%3B%26lt%3Bspan%20style%3D%26quot%3Btext-wrap%3A%20nowrap%3B%26quot%3B%26gt%3B%2B%20FreeFlight()%3A%20void%26lt%3B%2Fspan%26gt%3B%26lt%3Bbr%20style%3D%26quot%3Btext-wrap%3A%20nowrap%3B%20padding%3A%200px%3B%20margin%3A%200px%3B%26quot%3B%26gt%3B%26lt%3Bspan%20style%3D%26quot%3Btext-wrap%3A%20nowrap%3B%26quot%3B%26gt%3B%2B%20GetEvacuationState()%3A%20EvacuationState%26lt%3B%2Fspan%26gt%3B%22%20style%3D%22text%3BstrokeColor%3Dnone%3BfillColor%3Dnone%3Balign%3Dleft%3BverticalAlign%3Dtop%3BspacingLeft%3D4%3BspacingRight%3D4%3Boverflow%3Dhidden%3Brotatable%3D0%3Bpoints%3D%5B%5B0%2C0.5%5D%2C%5B1%2C0.5%5D%5D%3BportConstraint%3Deastwest%3BwhiteSpace%3Dwrap%3Bhtml%3D1%3B%22%20vertex%3D%221%22%20parent%3D%221%22%3E%3CmxGeometry%20x%3D%22470%22%20y%3D%22532%22%20width%3D%22160%22%20height%3D%22102%22%20as%3D%22geometry%22%2F%3E%3C%2FmxCell%3E%3C%2Froot%3E%3C%2FmxGraphModel%3E&lt;/span&gt;&lt;span style=&quot;text-align: left; text-wrap: nowrap;&quot;&gt;WarnBox(Box): void&lt;/span&gt;&lt;br style=&quot;padding: 0px; margin: 0px; text-align: left; text-wrap: nowrap;&quot;&gt;&lt;span style=&quot;text-align: left; text-wrap: nowrap;&quot;&gt;RmvBox(Box): void&lt;/span&gt;&lt;b&gt;&lt;br&gt;&lt;/b&gt;&lt;div&gt;&lt;span style=&quot;color: rgba(0, 0, 0, 0); font-family: monospace; font-size: 0px; text-align: start; text-wrap: nowrap;&quot;&gt;%3CmxGraphModel%3E%3Croot%3E%3CmxCell%20id%3D%220%22%2F%3E%3CmxCell%20id%3D%221%22%20parent%3D%220%22%2F%3E%3CmxCell%20id%3D%222%22%20value%3D%22%26lt%3Bspan%20style%3D%26quot%3Btext-wrap%3A%20nowrap%3B%26quot%3B%26gt%3B%2B%20Update(int%20interval)%3A%20void%26lt%3B%2Fspan%26gt%3B%26lt%3Bbr%20style%3D%26quot%3Btext-wrap%3A%20nowrap%3B%20padding%3A%200px%3B%20margin%3A%200px%3B%26quot%3B%26gt%3B%26lt%3Bspan%20style%3D%26quot%3Btext-wrap%3A%20nowrap%3B%26quot%3B%26gt%3B%2B%20Evacuate(Rectangle%20zone)%3A%20bool%26lt%3B%2Fspan%26gt%3B%26lt%3Bbr%20style%3D%26quot%3Btext-wrap%3A%20nowrap%3B%20padding%3A%200px%3B%20margin%3A%200px%3B%26quot%3B%26gt%3B%26lt%3Bspan%20style%3D%26quot%3Btext-wrap%3A%20nowrap%3B%26quot%3B%26gt%3B%2B%20FreeFlight()%3A%20void%26lt%3B%2Fspan%26gt%3B%26lt%3Bbr%20style%3D%26quot%3Btext-wrap%3A%20nowrap%3B%20padding%3A%200px%3B%20margin%3A%200px%3B%26quot%3B%26gt%3B%26lt%3Bspan%20style%3D%26quot%3Btext-wrap%3A%20nowrap%3B%26quot%3B%26gt%3B%2B%20GetEvacuationState()%3A%20EvacuationState%26lt%3B%2Fspan%26gt%3B%22%20style%3D%22text%3BstrokeColor%3Dnone%3BfillColor%3Dnone%3Balign%3Dleft%3BverticalAlign%3Dtop%3BspacingLeft%3D4%3BspacingRight%3D4%3Boverflow%3Dhidden%3Brotatable%3D0%3Bpoints%3D%5B%5B0%2C0.5%5D%2C%5B1%2C0.5%5D%5D%3BportConstraint%3Deastwest%3BwhiteSpace%3Dwrap%3Bhtml%3D1%3B%22%20vertex%3D%221%22%20parent%3D%221%22%3E%3CmxGeometry%20x%3D%22470%22%20y%3D%22532%22%20width%3D%22160%22%20height%3D%22102%22%20as%3D%22geometry%22%2F%3E%3C%2FmxCell%3E%3C%2Froot%3E%3C%2FmxGraphModel%3E&lt;/span&gt;&lt;span style=&quot;color: rgba(0, 0, 0, 0); font-family: monospace; font-size: 0px; text-align: start; text-wrap: nowrap; background-color: initial;&quot;&gt;3CmxGraphModel%3E%3Croot%3E%3CmxCell%20id%3D%220%22%2F%3E%3CmxCell%20id%3D%221%22%20parent%3D%220%22%2F%3E%3CmxCell%20id%3D%222%22%20value%3D%22%26lt%3Bspan%20style%3D%26quot%3Btext-wrap%3A%20nowrap%3B%26quot%3B%26gt%3B%2B%20Update(int%20interval)%3A%20void%26lt%3B%2Fspan%26gt%3B%26lt%3Bbr%20style%3D%26quot%3Btext-wrap%3A%20nowrap%3B%20padding%3A%200px%3B%20margin%3A%200px%3B%26quot%3B%26gt%3B%26lt%3Bspan%20style%3D%26quot%3Btext-wrap%3A%20nowrap%3B%26quot%3B%26gt%3B%2B%20Evacuate(Rectangle%20zone)%3A%20bool%26lt%3B%2Fspan%26gt%3B%26lt%3Bbr%20style%3D%26quot%3Btext-wrap%3A%20nowrap%3B%20padding%3A%200px%3B%20margin%3A%200px%3B%26quot%3B%26gt%3B%26lt%3Bspan%20style%3D%26quot%3Btext-wrap%3A%20nowrap%3B%26quot%3B%26gt%3B%2B%20FreeFlight()%3A%20void%26lt%3B%2Fspan%26gt%3B%26lt%3Bbr%20style%3D%26quot%3Btext-wrap%3A%20nowrap%3B%20padding%3A%200px%3B%20margin%3A%200px%3B%26quot%3B%26gt%3B%26lt%3Bspan%20style%3D%26quot%3Btext-wrap%3A%20nowrap%3B%26quot%3B%26gt%3B%2B%20GetEvacuationState()%3A%20EvacuationState%26lt%3B%2Fspan%26gt%3B%22%20style%3D%22text%3BstrokeColor%3Dnone%3BfillColor%3Dnone%3Balign%3Dleft%3BverticalAlign%3Dtop%3BspacingLeft%3D4%3BspacingRight%3D4%3Boverflow%3Dhidden%3Brotatable%3D0%3Bpoints%3D%5B%5B0%2C0.5%5D%2C%5B1%2C0.5%5D%5D%3BportConstraint%3Deastwest%3BwhiteSpace%3Dwrap%3Bhtml%3D1%3B%22%20vertex%3D%221%22%20parent%3D%221%22%3E%3CmxGeometry%20x%3D%22470%22%20y%3D%22532%22%20width%3D%22160%22%20height%3D%22102%22%20as%3D%22geometry%22%2F%3E%3C%2FmxCell%3E%3C%2Froot%3E%3C%2FmxGraphModel%3E&lt;/span&gt;&lt;b&gt;&lt;br&gt;&lt;/b&gt;&lt;/div&gt;&lt;/div&gt;" style="html=1;whiteSpace=wrap;" vertex="1" parent="1">
          <mxGeometry x="150" y="350" width="110" height="100" as="geometry" />
        </mxCell>
        <mxCell id="vRaaLgYJYoYB9j4Z2Ygw-6" style="edgeStyle=orthogonalEdgeStyle;rounded=0;orthogonalLoop=1;jettySize=auto;html=1;exitX=0;exitY=0.5;exitDx=0;exitDy=0;entryX=1;entryY=0.5;entryDx=0;entryDy=0;" edge="1" parent="1" source="vRaaLgYJYoYB9j4Z2Ygw-2" target="vRaaLgYJYoYB9j4Z2Ygw-5">
          <mxGeometry relative="1" as="geometry" />
        </mxCell>
      </root>
    </mxGraphModel>
  </diagram>
</mxfile>
